# xmcd
#
# Track frame offsets:
#	150
#	11561
#	25305
#	37574
#	49035
#	61912
#	71784
#	86163
#	99880
#	113823
#	126254
#	136193
#	149497
#	160298
#	171973
#
# Disc length: 2447 seconds
#
# Revision: 0
# Processed by: cddbd v1.5.2PL0 Copyright (c) Steve Scherf et al.
# Submitted via: EasyCDDAExtractor 2010.6.0.0
#
DISCID=c7098d0f
DTITLE=Los Invasores de Nuevo Leon - 30 Exitos Originales Vol. 1
DYEAR=2001
DGENRE=Norteño
TTITLE0=Cariño
TTITLE1=La Fuga de Reynosa
TTITLE2=El Leopardo
TTITLE3=Con Tu Imagen
TTITLE4=Derrotado Corazón
TTITLE5=Aunque Seas de Otro
TTITLE6=Que Valor de Mujer
TTITLE7=Que Mi Negra
TTITLE8=La Fuga de San Antonio
TTITLE9=Trono Caido
TTITLE10=Yo si La Supe Amar
TTITLE11=Oh Mi Niña
TTITLE12=Necesito Verte
TTITLE13=Para Que Te Explico
TTITLE14=Rubí
EXTD=
EXTT0=
EXTT1=
EXTT2=
EXTT3=
EXTT4=
EXTT5=
EXTT6=
EXTT7=
EXTT8=
EXTT9=
EXTT10=
EXTT11=
EXTT12=
EXTT13=
EXTT14=
PLAYORDER=
